HIERARCHY
ROOT Hips
{
	OFFSET	0.00	0.00	0.00
	CHANNELS 6 Xposition Yposition Zposition Zrotation Xrotation Yrotation
	JOINT LeftUpLeg
	{
		OFFSET	 0.126116	-0.014019	-0.065224
		CHANNELS 3 Zrotation Xrotation Yrotation
		JOINT LeftLeg
		{
			OFFSET	 0.000000	 0.000000	 0.569914
			CHANNELS 3 Zrotation Xrotation Yrotation
			JOINT LeftFoot
			{
				OFFSET	 0.000000	 0.000000	 0.544423
				CHANNELS 3 Zrotation Xrotation Yrotation
				JOINT LeftToeBase
				{
					OFFSET	 0.000000	 0.000000	 0.207117
					CHANNELS 3 Zrotation Xrotation Yrotation
					End Site
					{
						OFFSET	 0.000000	 0.000000	 0.207117
					}
				}
			}
		}
	}
	JOINT RightUpLeg
	{
		OFFSET	-0.124023	-0.008373	-0.065224
		CHANNELS 3 Zrotation Xrotation Yrotation
		JOINT RightLeg
		{
			OFFSET	 0.000000	 0.000000	 0.570047
			CHANNELS 3 Zrotation Xrotation Yrotation
			JOINT RightFoot
			{
				OFFSET	 0.000000	 0.000000	 0.544354
				CHANNELS 3 Zrotation Xrotation Yrotation
				JOINT RightToeBase
				{
					OFFSET	 0.000000	 0.000000	 0.207540
					CHANNELS 3 Zrotation Xrotation Yrotation
					End Site
					{
						OFFSET	 0.000000	 0.000000	 0.207540
					}
				}
			}
		}
	}
	JOINT Spine
	{
		OFFSET	 0.000184	-0.007763	 0.117403
		CHANNELS 3 Zrotation Xrotation Yrotation
		JOINT Spine1
		{
			OFFSET	 0.000000	 0.000000	 0.137269
			CHANNELS 3 Zrotation Xrotation Yrotation
			JOINT Spine2
			{
				OFFSET	 0.000000	 0.000000	 0.156879
				CHANNELS 3 Zrotation Xrotation Yrotation
				JOINT LeftShoulder
				{
					OFFSET	 0.080501	-0.002496	 0.160144
					CHANNELS 3 Zrotation Xrotation Yrotation
					JOINT LeftArm
					{
						OFFSET	 0.000000	 0.000000	 0.164363
						CHANNELS 3 Zrotation Xrotation Yrotation
						JOINT LeftForeArm
						{
							OFFSET	 0.000000	 0.000000	 0.364576
							CHANNELS 3 Zrotation Xrotation Yrotation
							JOINT LeftHand
							{
								OFFSET	 0.000000	 0.000000	 0.360812
								CHANNELS 3 Zrotation Xrotation Yrotation
								JOINT LeftHandIndex1
								{
									OFFSET	 0.000000	 0.000000	 0.086006
									CHANNELS 3 Zrotation Xrotation Yrotation
									JOINT LeftHandIndex2
									{
										OFFSET	 0.000000	 0.000000	 0.047236
										CHANNELS 3 Zrotation Xrotation Yrotation
										JOINT LeftHandIndex3
										{
											OFFSET	-0.004284	-0.000551	 0.038166
											CHANNELS 3 Zrotation Xrotation Yrotation
											End Site
											{
												OFFSET	-0.004284	-0.000551	 0.038166
											}
										}
									}
								}
							}
						}
					}
				}
				JOINT Neck
				{
					OFFSET	 0.000000	 0.000000	 0.176489
					CHANNELS 3 Zrotation Xrotation Yrotation
					JOINT Head
					{
						OFFSET	 0.000000	-0.001747	 0.077940
						CHANNELS 3 Zrotation Xrotation Yrotation
						End Site
						{
							OFFSET	 0.000000	-0.001747	 0.077940
						}
					}
				}
				JOINT RightShoulder
				{
					OFFSET	-0.080363	 0.000306	 0.159706
					CHANNELS 3 Zrotation Xrotation Yrotation
					JOINT RightArm
					{
						OFFSET	 0.000000	 0.000000	 0.164196
						CHANNELS 3 Zrotation Xrotation Yrotation
						JOINT RightForeArm
						{
							OFFSET	 0.000000	 0.000000	 0.365611
							CHANNELS 3 Zrotation Xrotation Yrotation
							JOINT RightHand
							{
								OFFSET	 0.000000	 0.000000	 0.360648
								CHANNELS 3 Zrotation Xrotation Yrotation
								JOINT RightHandIndex1
								{
									OFFSET	 0.000000	 0.000000	 0.069977
									CHANNELS 3 Zrotation Xrotation Yrotation
									JOINT RightHandIndex2
									{
										OFFSET	 0.000000	 0.000000	 0.052305
										CHANNELS 3 Zrotation Xrotation Yrotation
										JOINT RightHandIndex3
										{
											OFFSET	 0.009002	-0.000782	 0.042196
											CHANNELS 3 Zrotation Xrotation Yrotation
											End Site
											{
												OFFSET	 0.009002	-0.000782	 0.042196
											}
										}
									}
								}
							}
						}
					}
				}
			}
		}
	}
}
MOTION
Frames:    5
Frame Time: 0.03333334
-0.079522	-3.650361	 1.279484	-2.760749	 17.526550	 3.768696	 3.576901	-34.858920	 175.455200	-1.515151	-43.058250	-0.434041	-0.804771	 81.069130	 0.453892	-2.353517	 34.002080	-0.125103	-0.748279	-35.973460	-179.469200	-2.912614	-42.943370	-0.916796	-1.603994	 81.445330	 0.569648	 2.406546	 19.981730	-0.173466	-6.460354	 15.560490	 2.760491	-10.935890	 3.246203	-1.580610	-13.835010	-2.353680	-1.203224	-125.458400	 89.276920	-142.103700	 56.324660	 66.323500	-61.956390	-10.064940	-1.454418	-20.952380	-4.605033	-31.051750	-6.271975	-5.584275	-12.124150	-1.154239	-5.213516	-0.193813	 3.566525	-1.378229	 35.397820	-2.634230	 0.794170	 0.081120	-3.779039	-3.415362	-7.293221	 0.787933	 93.697590	 85.957070	 172.030100	-60.459430	 75.492660	 69.468250	-2.821556	-14.461550	 28.190890	-19.442400	-31.719840	 11.267990	-9.780575	-9.750109	-38.788940	 5.070815	-0.697434	-9.399699	-2.350882	 35.473990	 5.254307
-0.077233	-3.668186	 1.279860	-2.718033	 18.304280	 3.819765	 3.570156	-34.968850	 175.606300	-2.038878	-43.341260	-0.808092	-1.026789	 81.933160	 0.228014	-2.349019	 34.602450	-0.139352	-0.755135	-35.582310	-179.439500	-2.491020	-42.436730	-0.639578	-1.517624	 82.756870	 0.870846	 2.405211	 21.146330	-0.150254	-6.262067	 15.221180	 2.548647	-10.822150	 2.927210	-1.702578	-13.901600	-2.755824	-1.257760	-122.646800	 89.209950	-144.840300	 61.384180	 67.654110	-63.734650	-8.579973	-1.673696	-19.088330	-3.612186	-29.574190	-6.171910	-4.954277	-11.519310	 0.269642	-5.213516	-0.193813	 3.566525	-1.378229	 35.397820	-2.634230	 0.731492	-0.247692	-3.541045	-3.541944	-7.904910	 0.600324	 93.653500	 86.010170	 172.199000	-51.662850	 78.504160	 57.963420	-4.199890	-12.776210	 22.002710	-22.122040	-30.234570	 11.060200	-9.167367	-8.502285	-38.237860	 5.070815	-0.697434	-9.399699	-2.350882	 35.473990	 5.254307
-0.075472	-3.683086	 1.280217	-3.094674	 18.832120	 3.923365	 3.549712	-34.900620	 175.657100	-2.133207	-43.702350	-0.902672	-1.105026	 82.470480	 0.194078	-2.338929	 35.854450	-0.169591	-0.730331	-35.268410	-179.570800	-2.302405	-42.195760	-0.498299	-1.455320	 83.308950	 1.001204	 2.404674	 21.524370	-0.142676	-5.967961	 14.949990	 2.390029	-10.580810	 2.547026	-1.609424	-13.833030	-3.169130	-1.301271	-116.642300	 89.035510	-150.763500	 64.736590	 68.750690	-64.657840	-7.590968	-1.823437	-17.759170	-2.771456	-28.038880	-6.074883	-4.159420	-10.724180	 2.108589	-5.213516	-0.193813	 3.566525	-1.378229	 35.397820	-2.634230	 0.822344	-0.530297	-3.312433	-3.598213	-8.503181	 0.576431	 93.885480	 86.245000	 172.091300	-39.734570	 80.271710	 43.777790	-4.693097	-11.802750	 18.927870	-23.921900	-28.712340	 10.847360	-8.801489	-7.650759	-37.974250	 5.070815	-0.697434	-9.399699	-2.350882	 35.473990	 5.254307
-0.073738	-3.695758	 1.282208	-3.581709	 19.368280	 3.929670	 3.576224	-34.790430	 175.755800	-2.438112	-43.578970	-1.096534	-1.209904	 82.425110	 0.085683	-2.330210	 36.847890	-0.194144	-0.816368	-35.428940	-179.436300	-2.551473	-42.110040	-0.718438	-1.629138	 83.391050	 0.934186	 2.404564	 21.598790	-0.141185	-5.794942	 14.591170	 2.213966	-10.388830	 2.183435	-1.370969	-13.645420	-3.533349	-1.326701	-109.875800	 88.742590	-157.561400	 66.717090	 69.633390	-65.102060	-7.226511	-1.878281	-16.802910	-2.221335	-26.344840	-5.978346	-3.915680	-10.786110	 2.683992	-5.213516	-0.193813	 3.566525	-1.378229	 35.397820	-2.634230	 0.928464	-0.676773	-2.936303	-3.499935	-8.874755	 0.819941	 94.454440	 86.589000	 171.554200	-29.771400	 80.799080	 32.077280	-4.892244	-11.262360	 17.543610	-24.863770	-27.029150	 10.648030	-8.684888	-7.597605	-37.733950	 5.070815	-0.697434	-9.399699	-2.350882	 35.473990	 5.254307
-0.073052	-3.705716	 1.284316	-3.978243	 19.743270	 3.882590	 3.574254	-34.563680	 175.784600	-2.686082	-43.325760	-1.261106	-1.288610	 82.204190	-0.018929	-2.324071	 37.506840	-0.210706	-0.839565	-35.344580	-179.259700	-2.855973	-41.953830	-0.939869	-1.807682	 83.378450	 0.863349	 2.404542	 21.611320	-0.140929	-5.686216	 14.290900	 2.192334	-10.235690	 1.968128	-1.219911	-13.445700	-3.742134	-1.331527	-107.503000	 88.599600	-159.994300	 67.495410	 70.007650	-65.411670	-6.371332	-2.121381	-16.210360	-1.055907	-24.763630	-5.888758	-3.937160	-11.002400	 2.634448	-5.213516	-0.193813	 3.566525	-1.378229	 35.397820	-2.634230	 0.999204	-0.803703	-2.618415	-3.377254	-8.949015	 0.995934	 94.841020	 86.777540	 171.167200	-24.589050	 80.742580	 25.856260	-5.190546	-11.218920	 17.236650	-25.524110	-25.451330	 10.492310	-8.607134	-7.689225	-37.483900	 5.070815	-0.697434	-9.399699	-2.350882	 35.473990	 5.254307
